#!OML:ASF I:\Actors\actors\Patient Classification 2\Patient 1\Session 1\actor1.ASF
:FULLY-SPECIFIED
:DEGREES
542
root -0.744266 18.6297 4.90351 2.76039 -1.90227 -2.469
lowerback 19.1417 0.0620263 0.88805
upperback 4.22688 0.367771 1.64507
thorax -6.15368 0.17064 1.16766
lowerneck -3.78543 2.96919 -1.9706
upperneck -6.78835 3.93917 -1.84974
head -1.46428 2.0452 -0.252743
rclavicle 5.41688e-015 -1.17283e-014
rhumerus -49.7466 -2.74455 -74.3297
rradius 60.2212
rwrist 6.71553
rhand 1.91021 -41.2386
rfingers 7.12502
rthumb 27.4187 -69.2634
lclavicle 5.41688e-015 -1.17283e-014
lhumerus 23.3321 -8.42143 27.3009
lradius 133.586
lwrist 43.1793
lhand -21.7357 -38.6905
lfingers 7.12502
lthumb 4.664 -8.76183
rfemur 0.15632 1.4785 16.485
rtibia 4.04257
rfoot -14.3386 -10.455
rtoes -9.83626
lfemur -13.3963 0.905771 -11.0127
ltibia 28.8234
lfoot -19.3715 9.34496
ltoes -56.9903
543
root -0.743388 18.6325 4.91462 2.78476 -1.91518 -2.48535
lowerback 19.0331 0.0666925 0.959996
upperback 4.11986 0.389768 1.6673
thorax -6.21106 0.180519 1.14537
lowerneck -3.88643 2.99515 -2.03129
upperneck -6.80528 3.98069 -1.78672
head -1.45529 2.06626 -0.222039
rclavicle 9.44227e-016 -3.18055e-015
rhumerus -49.7769 -2.78809 -74.3276
rradius 60.1958
rwrist 6.74855
rhand 1.96431 -41.2497
rfingers 7.12502
rthumb 27.4705 -69.2663
lclavicle 9.44227e-016 -3.18055e-015
lhumerus 23.3993 -8.26517 27.2369
lradius 133.555
lwrist 43.0398
lhand -21.7836 -38.4782
lfingers 7.12502
lthumb 4.61775 -8.54851
rfemur 0.573326 1.482 16.4997
rtibia 3.23585
rfoot -14.0699 -10.6527
rtoes -9.61573
lfemur -13.3375 0.868611 -11.0008
ltibia 28.7565
lfoot -19.4109 9.37705
ltoes -56.9007
544
root -0.742165 18.6342 4.92341 2.80632 -1.91013 -2.49073
lowerback 18.9466 0.069046 1.02028
upperback 4.01902 0.406431 1.68487
thorax -6.27346 0.187884 1.12609
lowerneck -3.96517 3.01644 -1.99075
upperneck -6.83172 4.00839 -1.81679
head -1.44892 2.07951 -0.236861
rclavicle 3.42904e-015 -1.19271e-014
rhumerus -49.8069 -2.82967 -74.336
rradius 60.1945
rwrist 6.76547
rhand 1.94577 -40.9726
rfingers 7.12502
rthumb 27.4527 -68.9921
lclavicle 3.42904e-015 -1.19271e-014
lhumerus 23.4559 -8.14072 27.1403
lradius 133.53
lwrist 42.8731
lhand -21.8674 -38.4501
lfingers 7.12502
lthumb 4.53677 -8.51868
rfemur 1.13589 1.46744 16.5018
rtibia 2.1124
rfoot -13.5889 -10.9748
rtoes -9.77394
lfemur -13.2977 0.817329 -11.0026
ltibia 28.6919
lfoot -19.4342 9.40601
ltoes -56.8417
545
root -0.741279 18.6355 4.93222 2.79331 -1.88126 -2.49547
lowerback 18.8644 0.0538535 1.05559
upperback 3.96253 0.3951 1.71255
thorax -6.29024 0.18209 1.13835
lowerneck -4.06582 3.02961 -1.93256
upperneck -6.9305 4.02184 -1.89217
head -1.46044 2.08663 -0.268961
rclavicle -4.96962e-016 -2.24627e-014
rhumerus -49.7261 -2.79422 -74.3613
rradius 60.1429
rwrist 6.77273
rhand 1.88043 -40.7871
rfingers 7.12502
rthumb 27.3902 -68.8165
lclavicle -4.96962e-016 -2.24627e-014
lhumerus 23.4595 -7.99016 27.0635
lradius 133.528
lwrist 42.7537
lhand -21.7626 -38.7736
lfingers 7.12502
lthumb 4.63805 -8.84439
rfemur 2.22938 1.4322 16.5059
rtibia -2.38542e-015
rfoot -12.6924 -11.5926
rtoes -10.0878
lfemur -13.2316 0.769824 -11.002
ltibia 28.6373
lfoot -19.4623 9.40641
ltoes -56.8122
546
root -0.740356 18.6374 4.9414 2.78011 -1.81842 -2.55516
lowerback 18.8051 0.031087 1.16521
upperback 3.88934 0.391106 1.76657
thorax -6.33694 0.178747 1.13496
lowerneck -4.25218 3.01944 -2.04522
upperneck -6.92726 4.01866 -1.84035
head -1.43158 2.08609 -0.231345
rclavicle 2.5842e-015 2.10712e-014
rhumerus -49.6972 -2.76556 -74.3238
rradius 60.1021
rwrist 6.8214
rhand 1.97473 -40.864
rfingers 7.12502
rthumb 27.4804 -68.8791
lclavicle 2.5842e-015 2.10712e-014
lhumerus 23.5016 -7.8366 27.0346
lradius 133.526
lwrist 42.7571
lhand -21.7254 -38.7528
lfingers 7.12502
lthumb 4.6739 -8.82437
rfemur 2.29066 1.36392 16.5667
rtibia 9.54166e-015
rfoot -12.742 -11.5455
rtoes -10.1299
lfemur -13.1627 0.68081 -10.926
ltibia 28.5974
lfoot -19.5476 9.31353
ltoes -56.6048
547
root -0.739222 18.6398 4.94943 2.80026 -1.76576 -2.56701
lowerback 18.7479 0.0190093 1.21583
upperback 3.77205 0.38999 1.80976
thorax -6.43257 0.17764 1.1531
lowerneck -4.33854 3.02484 -2.15107
upperneck -6.89481 4.03379 -1.79652
head -1.41009 2.09473 -0.198762
rclavicle 3.67752e-015 1.70955e-014
rhumerus -49.7711 -2.72407 -74.2816
rradius 60.1251
rwrist 6.85506
rhand 2.06746 -41.1696
rfingers 7.12502
rthumb 27.5691 -69.1705
lclavicle 3.67752e-015 1.70955e-014
lhumerus 23.5531 -7.70448 26.9889
lradius 133.497
lwrist 42.8125
lhand -21.9071 -38.4972
lfingers 7.12502
lthumb 4.49852 -8.56501
rfemur 2.30647 1.30131 16.5726
rtibia 3.97569e-015
rfoot -12.7884 -11.4921
rtoes -9.84933
lfemur -13.1264 0.561966 -10.8957
ltibia 28.5672
lfoot -19.6819 9.1691
ltoes -56.35
548
root -0.737664 18.6415 4.95627 2.83736 -1.74794 -2.54084
lowerback 18.6482 0.00453341 1.20481
upperback 3.68518 0.370131 1.82832
thorax -6.47268 0.168417 1.18408
lowerneck -4.22598 3.06528 -2.03154
upperneck -7.08399 4.06949 -1.97243
head -1.48271 2.115 -0.276665
rclavicle 3.47873e-015 7.35503e-015
rhumerus -49.7722 -2.6351 -74.3094
rradius 60.1365
rwrist 6.82865
rhand 2.0068 -41.2812
rfingers 7.12502
rthumb 27.5111 -69.2913
lclavicle 3.47873e-015 7.35503e-015
lhumerus 23.5285 -7.62777 26.9162
lradius 133.476
lwrist 42.7161
lhand -21.885 -38.6613
lfingers 7.12502
lthumb 4.51982 -8.72955
rfemur 2.29105 1.27051 16.5429
rtibia -7.15625e-015
rfoot -12.7635 -11.4905
rtoes -9.84166
lfemur -13.1298 0.543978 -10.9359
ltibia 28.5461
lfoot -19.6737 9.19294
ltoes -56.4313
549
root -0.736053 18.6412 4.96365 2.84031 -1.7033 -2.57935
lowerback 18.5661 -0.0169227 1.29669
upperback 3.6287 0.36116 1.85343
thorax -6.48896 0.162632 1.16084
lowerneck -4.11838 3.08204 -1.88522
upperneck -7.28308 4.07168 -2.16682
head -1.55695 2.11838 -0.365007
rclavicle -1.98785e-016 -5.96354e-016
rhumerus -49.777 -2.55718 -74.3315
rradius 60.1459
rwrist 6.79242
rhand 1.96765 -41.1748
rfingers 7.12502
rthumb 27.4737 -69.1909
lclavicle -1.98785e-016 -5.96354e-016
lhumerus 23.4815 -7.69415 26.9394
lradius 133.514
lwrist 42.4946
lhand -21.6499 -38.8039
lfingers 7.12502
lthumb 4.74681 -8.87711
rfemur 2.32504 1.2184 16.5861
rtibia -7.95139e-015
rfoot -12.7897 -11.4736
rtoes -9.82214
lfemur -13.1324 0.598439 -10.9238
ltibia 28.5308
lfoot -19.5382 9.32712
ltoes -56.7717
550
root -0.735053 18.6407 4.97123 2.79064 -1.62451 -2.60878
lowerback 18.5577 -0.033427 1.42035
upperback 3.57536 0.365727 1.86637
thorax -6.54124 0.162596 1.10355
lowerneck -4.19521 3.08369 -1.89342
upperneck -7.22549 4.07731 -2.16624
head -1.52577 2.12018 -0.361243
rclavicle -2.08724e-015 6.55989e-015
rhumerus -49.8389 -2.56445 -74.3247
rradius 60.1743
rwrist 6.7607
rhand 1.98401 -41.189
rfingers 7.12502
rthumb 27.4893 -69.2026
lclavicle -2.08724e-015 6.55989e-015
lhumerus 23.4984 -7.72075 26.9264
lradius 133.522
lwrist 42.3653
lhand -21.6926 -38.8448
lfingers 7.12502
lthumb 4.70556 -8.91704
rfemur 2.42054 1.13483 16.6154
rtibia 1.03368e-014
rfoot -12.8348 -11.4236
rtoes -9.75977
lfemur -13.0679 0.54422 -10.8925
ltibia 28.5169
lfoot -19.581 9.26935
ltoes -56.7504
